<svg width="228" height="30" viewBox="0 0 228 30" fill="none" xmlns="http://www.w3.org/2000/svg">
<g clip-path="url(#clip0_1_392)">
<path d="M9.20958 0.405618L3.69488 6.11948L9.6911 12.1927V12.3117H7.28464L1.92603 6.85466V12.3117H0.00106812V0.342793H1.92603V5.50996L6.82194 0.342793H9.20958V0.405618Z" fill="#575756"/>
<path d="M32.3665 9.80308H25.8567L24.7221 12.3183H22.6787L28.0727 0.342793H30.1681L35.5622 12.3183H33.5188L32.3665 9.80308ZM29.1199 2.36205L26.5739 8.05828H31.6581L29.1199 2.36205Z" fill="#575756"/>
<path d="M59.8138 10.7774C59.2162 11.3568 58.5091 11.8124 57.7336 12.118C56.958 12.4235 56.1293 12.5729 55.2953 12.5575C54.4612 12.6209 53.6232 12.5068 52.8367 12.223C52.0503 11.9391 51.3335 11.4919 50.734 10.9111C50.1344 10.3302 49.6658 9.629 49.3592 8.854C49.0527 8.079 48.9152 7.24794 48.956 6.41598C48.9139 5.57733 49.0493 4.73923 49.3535 3.95604C49.6576 3.17284 50.1236 2.46202 50.7213 1.86967C51.319 1.27732 52.035 0.816648 52.823 0.517535C53.611 0.218422 54.4533 0.0875446 55.2953 0.133377C56.1126 0.12929 56.9225 0.287535 57.6777 0.598861C58.4328 0.910187 59.118 1.36834 59.6931 1.94651L58.4047 3.17879C57.5702 2.37783 56.4532 1.9353 55.2942 1.94651C54.7014 1.91595 54.1087 2.01037 53.555 2.2236C53.0013 2.43682 52.4991 2.76403 52.0811 3.18384C51.6632 3.60365 51.3389 4.10659 51.1296 4.65977C50.9203 5.21294 50.8307 5.80389 50.8665 6.39394C50.8325 6.97969 50.924 7.56594 51.1351 8.11372C51.3463 8.66149 51.6721 9.15824 52.0909 9.57092C52.5097 9.98361 53.012 10.3028 53.5643 10.5072C54.1167 10.7116 54.7064 10.7966 55.2942 10.7565C56.4871 10.7464 57.6305 10.2808 58.4888 9.45588L59.8138 10.7774Z" fill="#575756"/>
<path d="M74.1706 0.342793H82.9507V1.21574L76.3347 10.4886H82.9507V12.3194H73.6205V11.2415L80.1137 2.10523H74.1695L74.1706 0.342793Z" fill="#575756"/>
<path d="M108.527 3.14902L104.438 8.81218H104.027L99.9885 3.14902V12.336H98.0669V0.360424H100.3L104.27 5.97069L108.221 0.360424H110.453V12.336H108.53V3.14902H108.527Z" fill="#575756"/>
<path d="M134.725 9.80308H128.215L127.081 12.3183H125.037L130.431 0.342793H132.527L137.921 12.3183H135.877L134.725 9.80308ZM131.478 2.36205L128.932 8.05828H134.024L131.478 2.36205Z" fill="#575756"/>
<path d="M162.882 12.3183H160.631L156.972 8.17841H154.426V12.3183H152.502V0.326252C154.374 0.326252 156.23 0.342793 158.102 0.342793C158.645 0.298103 159.191 0.366384 159.705 0.543294C160.22 0.720203 160.692 1.00186 161.091 1.37034C161.49 1.73882 161.808 2.18605 162.025 2.68356C162.241 3.18107 162.351 3.71795 162.347 4.26005C162.401 5.18359 162.09 6.09146 161.479 6.7888C160.869 7.48614 160.008 7.91737 159.082 7.98993L162.673 11.9766L162.882 12.3183ZM154.428 2.0887V6.43361H158.088C158.385 6.46698 158.686 6.43586 158.97 6.34239C159.254 6.24893 159.514 6.09533 159.733 5.89216C159.952 5.68898 160.124 5.44105 160.237 5.16541C160.351 4.88976 160.403 4.59293 160.39 4.29532C160.401 3.9968 160.349 3.69935 160.237 3.42224C160.124 3.14514 159.955 2.89456 159.74 2.68674C159.524 2.47892 159.267 2.3185 158.986 2.21585C158.704 2.11321 158.404 2.07064 158.104 2.0909L154.428 2.0887Z" fill="#575756"/>
<path d="M185.005 2.99471C184.647 2.55842 184.192 2.21086 183.676 1.97942C183.161 1.74798 182.598 1.63899 182.033 1.66103C180.417 1.66103 179.249 2.32787 179.249 3.47417C179.249 4.637 180.589 4.96215 182.17 5.1848C184.643 5.52759 186.998 6.21207 186.998 8.89816C186.998 11.5842 184.523 12.5928 182.017 12.5928C179.716 12.5928 177.946 11.8918 176.847 9.87251L178.286 8.91359C178.677 9.54498 179.23 10.0605 179.889 10.4065C180.548 10.7526 181.288 10.9164 182.032 10.881C183.471 10.881 185.072 10.4016 185.072 8.89705C185.072 7.59645 183.682 7.15115 181.998 6.9285C179.611 6.60335 177.343 6.00375 177.343 3.4389C177.326 0.95782 179.816 -4.68083e-06 181.981 -4.68083e-06C182.84 -0.0876971 183.708 0.0529627 184.496 0.407649C185.283 0.762334 185.962 1.31839 186.464 2.01925L185.005 2.99471Z" fill="#575756"/>
<path d="M211.268 0.405618L205.753 6.11948L211.749 12.1927V12.3117H209.345L203.984 6.85466V12.3117H202.06V0.342793H203.984V5.50996L208.88 0.342793H211.268V0.405618Z" fill="#575756"/>
<path d="M226.094 12.3183V0.342796H228.001V12.3183H226.094Z" fill="#575756"/>
<path d="M81.4586 23.5565C80.8125 22.9618 79.9673 22.6278 79.0876 22.6196C78.6551 22.6069 78.2247 22.6845 77.8242 22.8474C77.4237 23.0102 77.0619 23.2548 76.762 23.5654C76.4621 23.8759 76.2309 24.2455 76.0831 24.6504C75.9353 25.0553 75.8743 25.4865 75.904 25.9163C75.8823 26.3391 75.951 26.7616 76.1054 27.156C76.2599 27.5504 76.4967 27.9076 76.8001 28.2041C77.1035 28.5006 77.4667 28.7296 77.8656 28.876C78.2645 29.0224 78.69 29.0828 79.1141 29.0532C79.9183 29.0586 80.6967 28.7708 81.3025 28.2442V26.3517H78.8064V25.4699H82.2091V28.6289C81.8204 29.0648 81.3415 29.4118 80.8053 29.646C80.2691 29.8802 79.6884 29.9961 79.1031 29.9857C78.5506 30.0301 77.995 29.9561 77.4738 29.7684C76.9525 29.5808 76.4778 29.284 76.0816 28.8981C75.6854 28.5121 75.377 28.0461 75.1772 27.5313C74.9773 27.0165 74.8908 26.465 74.9233 25.9141C74.8871 25.3565 74.9696 24.7976 75.1653 24.2739C75.3611 23.7503 75.6657 23.2737 76.0592 22.8754C76.4528 22.4771 76.9264 22.166 77.449 21.9626C77.9716 21.7591 78.5315 21.6679 79.092 21.6948C80.1933 21.6923 81.2511 22.1228 82.0353 22.8929L81.4586 23.5565Z" fill="#575756"/>
<path d="M95.4767 26.9667H93.5296V29.8402H92.5334V21.8569H96.1751C96.5259 21.83 96.8785 21.8766 97.2101 21.9935C97.5418 22.1104 97.8452 22.2951 98.1009 22.5357C98.3566 22.7763 98.5589 23.0675 98.6949 23.3906C98.8309 23.7137 98.8975 24.0615 98.8904 24.4118C98.9124 24.727 98.8693 25.0433 98.7638 25.3413C98.6583 25.6393 98.4926 25.9126 98.277 26.1444C98.0614 26.3762 97.8004 26.5616 97.5102 26.6892C97.2199 26.8168 96.9065 26.8838 96.5892 26.8863L99.2336 29.8402H97.975L95.4767 26.9667ZM97.892 24.4316C97.8988 24.2062 97.8588 23.9818 97.7745 23.7724C97.6903 23.563 97.5636 23.3732 97.4024 23.2147C97.2412 23.0563 97.0489 22.9326 96.8376 22.8515C96.6262 22.7703 96.4004 22.7334 96.1741 22.743H93.5285V26.0739H96.1298C96.3577 26.1001 96.5886 26.0765 96.8065 26.005C97.0244 25.9335 97.2241 25.8156 97.3917 25.6596C97.5593 25.5036 97.6909 25.3132 97.7773 25.1015C97.8637 24.8899 97.9028 24.662 97.892 24.4338V24.4316Z" fill="#575756"/>
<path d="M116.928 25.8722C116.909 26.6709 116.654 27.4463 116.194 28.1011C115.735 28.7559 115.091 29.2609 114.344 29.5529C113.597 29.8449 112.781 29.9108 111.996 29.7423C111.212 29.5738 110.495 29.1785 109.936 28.6059C109.376 28.0333 108.999 27.3089 108.852 26.5236C108.704 25.7384 108.792 24.9272 109.106 24.1919C109.42 23.4565 109.944 22.8298 110.614 22.3903C111.284 21.9508 112.07 21.718 112.872 21.7213C113.42 21.7015 113.965 21.7963 114.474 21.9994C114.983 22.2026 115.443 22.5096 115.825 22.9007C116.207 23.2918 116.503 23.7583 116.693 24.2701C116.883 24.7819 116.963 25.3277 116.928 25.8722ZM112.872 22.6328C112.227 22.5978 111.586 22.7561 111.032 23.0872C110.478 23.4183 110.036 23.9071 109.763 24.4905C109.491 25.0739 109.4 25.7253 109.503 26.3606C109.606 26.9958 109.897 27.5859 110.34 28.0547C110.782 28.5235 111.356 28.8496 111.986 28.9908C112.617 29.1321 113.275 29.082 113.877 28.8472C114.478 28.6123 114.995 28.2034 115.362 27.6732C115.728 27.1429 115.926 26.5156 115.93 25.8722C115.966 25.4543 115.912 25.0337 115.774 24.6377C115.635 24.2416 115.415 23.879 115.126 23.5734C114.838 23.2678 114.488 23.0261 114.1 22.8638C113.711 22.7016 113.293 22.6225 112.872 22.6317V22.6328Z" fill="#575756"/>
<path d="M133.601 21.8679V26.6581C133.636 27.0963 133.576 27.5367 133.426 27.95C133.276 28.3634 133.039 28.7401 132.732 29.0552C132.424 29.3703 132.052 29.6164 131.641 29.7773C131.231 29.9381 130.79 30.0099 130.349 29.9879C129.907 30.0091 129.465 29.9372 129.053 29.7766C128.641 29.616 128.267 29.3705 127.957 29.0561C127.646 28.7417 127.406 28.3656 127.252 27.9523C127.098 27.5391 127.033 27.098 127.062 26.6581V21.8679H128.047V26.6581C128.028 26.9688 128.074 27.28 128.181 27.5725C128.288 27.865 128.454 28.1326 128.668 28.3588C128.883 28.585 129.142 28.765 129.429 28.8877C129.717 29.0104 130.026 29.0733 130.339 29.0724C130.651 29.0715 130.96 29.0068 131.247 28.8824C131.533 28.758 131.791 28.5765 132.005 28.3491C132.218 28.1217 132.382 27.8531 132.488 27.56C132.593 27.2669 132.637 26.9555 132.616 26.6449V21.8568H133.59L133.601 21.8679Z" fill="#575756"/>
<path d="M145.254 29.8402H144.268V21.8569H147.911C148.278 21.8387 148.645 21.8952 148.99 22.0227C149.335 22.1502 149.65 22.3462 149.917 22.5988C150.183 22.8513 150.395 23.1551 150.54 23.4918C150.685 23.8285 150.76 24.191 150.76 24.5573C150.76 24.9236 150.685 25.2861 150.54 25.6228C150.395 25.9594 150.183 26.2633 149.917 26.5158C149.65 26.7683 149.335 26.9643 148.99 27.0919C148.645 27.2194 148.278 27.2758 147.911 27.2577H145.254V29.8402ZM147.911 22.786H145.254V26.344H147.911C148.385 26.344 148.84 26.1563 149.176 25.8221C149.511 25.488 149.7 25.0348 149.7 24.5623C149.7 24.0897 149.511 23.6365 149.176 23.3024C148.84 22.9682 148.385 22.7805 147.911 22.7805V22.786Z" fill="#575756"/>
</g>
<defs>
<clipPath id="clip0_1_392">
<rect width="228" height="30" fill="white"/>
</clipPath>
</defs>
</svg>
