<?xml version="1.0" encoding="UTF-8"?>
<svg id="Warstwa_2" data-name="Warstwa 2" xmlns="http://www.w3.org/2000/svg" viewBox="0 0 213.43 41.51">
  <defs>
    <style>
      .cls-1 {
        fill: #003155;
      }

      .cls-2 {
        fill: #e40521;
      }
    </style>
  </defs>
  <g id="Warstwa_1-2" data-name="Warstwa 1">
    <g>
      <g>
        <path class="cls-1" d="M193.19,25.8h-6.52v15.36h3.47v-4.43h3.05c1.95,0,3.46-.49,4.53-1.48,1.08-.99,1.61-2.37,1.61-4.14s-.54-2.99-1.61-3.92c-1.08-.93-2.59-1.39-4.53-1.39ZM195.25,33.25c-.53.45-1.27.67-2.24.67h-2.87v-5.33h2.87c.97,0,1.71.22,2.24.66.53.44.79,1.1.79,1.97s-.26,1.58-.79,2.03Z"/>
        <polygon class="cls-1" points="206.87 38.24 206.87 25.8 203.41 25.8 203.41 41.16 213.43 41.16 213.43 38.24 206.87 38.24"/>
      </g>
      <circle class="cls-2" cx="180.19" cy="39.53" r="1.99"/>
      <g>
        <polygon class="cls-1" points="59.45 41.16 62.92 41.16 62.92 35.26 69.83 35.26 69.83 32.48 69.83 32.46 62.92 32.46 62.92 28.58 70.49 28.58 70.49 25.79 59.45 25.79 59.45 41.16"/>
        <path class="cls-1" d="M78.52,25.8l-6.69,15.36h3.6l1.23-3.07h7.05l1.22,3.07h3.69l-6.54-15.36h-3.55ZM77.73,35.38l2.45-6.12,2.44,6.12h-4.89Z"/>
        <polygon class="cls-1" points="105.94 25.8 101.9 25.8 95.54 33.1 95.54 25.8 92.08 25.8 92.08 41.16 95.54 41.16 95.54 37.27 97.76 34.82 102.17 41.16 106.31 41.16 100.14 32.19 105.94 25.8"/>
        <polygon class="cls-1" points="109.02 28.65 113.69 28.65 113.69 41.16 117.16 41.16 117.16 28.65 121.85 28.65 121.85 25.8 109.02 25.8 109.02 28.65"/>
        <path class="cls-1" d="M155.47,35.24c1.1-.99,1.66-2.37,1.66-4.14s-.55-2.99-1.66-3.92c-1.1-.93-2.66-1.39-4.66-1.39h-6.67v15.36h3.47v-4.43h3.2c.1,0,.19-.02.29-.02l2.47,4.45h3.93l-3.32-5.1c.48-.22.92-.48,1.29-.81ZM147.61,28.58h3.2c.95,0,1.69.22,2.23.66.53.44.8,1.1.8,1.97s-.27,1.58-.8,2.03c-.53.45-1.28.67-2.23.67h-3.2v-5.33Z"/>
        <polygon class="cls-1" points="165.35 38.37 165.35 34.84 172.75 34.84 172.75 32.05 172.75 32.04 165.35 32.04 165.35 28.58 173.58 28.58 173.58 25.79 161.89 25.79 161.89 41.16 173.82 41.16 173.82 38.37 165.35 38.37"/>
        <path class="cls-1" d="M135.52,25.8v9.04c0,1.13-.3,2.01-.91,2.67-.61.65-1.41.98-2.4.98s-1.85-.33-2.48-.98c-.63-.65-.94-1.54-.94-2.67v-9.04h-3.47v9.04c0,1.33.28,2.49.83,3.48.56.99,1.35,1.75,2.38,2.28,1.03.53,2.25.8,3.65.8s2.61-.27,3.63-.8c1.02-.53,1.8-1.29,2.35-2.28.55-.99.82-2.15.82-3.48v-9.04h-3.47Z"/>
      </g>
      <g>
        <polygon class="cls-1" points="73.32 0 69.28 0 62.92 7.31 62.92 0 59.45 0 59.45 15.36 62.92 15.36 62.92 11.48 65.14 9.02 69.54 15.36 73.69 15.36 67.52 6.4 73.32 0"/>
        <path class="cls-1" d="M102.34,0h-6.52v15.36h3.47v-4.43h3.05c1.95,0,3.46-.49,4.53-1.48,1.08-.99,1.61-2.37,1.61-4.14s-.54-2.99-1.61-3.92c-1.08-.93-2.59-1.39-4.53-1.39ZM104.4,7.45c-.53.45-1.27.67-2.24.67h-2.87V2.79h2.87c.97,0,1.71.22,2.24.66.53.44.79,1.1.79,1.97s-.26,1.58-.79,2.03Z"/>
        <polygon class="cls-1" points="130.01 9.57 125.22 0 121.36 0 121.36 15.36 124.48 15.36 124.48 4.78 128.86 13.8 131.1 13.8 135.47 4.78 135.47 15.36 138.58 15.36 138.58 0 134.74 0 130.01 9.57"/>
        <polygon class="cls-1" points="156.82 0 153.33 0 149.49 7 145.56 0 142.07 0 147.76 10.38 147.76 15.36 151.22 15.36 151.22 10.31 156.82 0"/>
        <polygon class="cls-1" points="112.54 0 112.54 15.36 116.01 15.36 116.01 0 116.01 0 112.54 0"/>
        <path class="cls-1" d="M87.77,0v9.04c0,1.13-.3,2.01-.91,2.67-.61.65-1.41.98-2.4.98s-1.85-.33-2.48-.98c-.63-.65-.94-1.54-.94-2.67V0h-3.47v9.04c0,1.33.28,2.49.83,3.48.56.99,1.35,1.75,2.38,2.28,1.03.53,2.25.8,3.65.8s2.61-.27,3.63-.8c1.02-.53,1.8-1.29,2.35-2.28.55-.99.82-2.15.82-3.48V0h-3.47Z"/>
      </g>
      <g>
        <polygon class="cls-2" points="37.79 23.31 24.38 36.72 18.4 30.73 16 33.13 21.98 39.11 24.38 41.51 26.78 39.11 40.19 25.7 37.79 23.31"/>
        <g>
          <polygon class="cls-1" points="21.11 20.42 8.9 20.42 8.9 23.81 17.75 23.81 21.11 20.42"/>
          <polygon class="cls-1" points="27.62 12.71 8.9 12.71 8.9 16.11 24.24 16.11 27.62 12.71"/>
        </g>
        <polygon class="cls-1" points="15.99 33.13 3.39 33.13 3.39 3.4 3.38 3.4 0 6.78 0 33.13 0 33.13 0 36.53 0 36.53 0 36.53 3.39 36.53 3.39 36.53 12.58 36.53 15.99 33.13"/>
        <polygon class="cls-1" points="36.52 0 36.52 0 6.79 0 3.39 3.4 33.13 3.4 33.13 22.82 36.52 19.43 36.52 0 36.52 0"/>
      </g>
    </g>
  </g>
</svg>